<mxfile host="app.diagrams.net" agent="Mozilla/5.0 (Windows NT 10.0; Win64; x64) AppleWebKit/537.36 (KHTML, like Gecko) Chrome/129.0.0.0 Safari/537.36" version="24.7.17">
  <diagram name="Trang-1" id="OiOTjU1HUudJ6jvDkUQu">
    <mxGraphModel dx="1050" dy="603" grid="1" gridSize="10" guides="1" tooltips="1" connect="1" arrows="1" fold="1" page="1" pageScale="1" pageWidth="827" pageHeight="1169" math="0" shadow="0">
      <root>
        <mxCell id="0" />
        <mxCell id="1" parent="0" />
        <mxCell id="4_rjH7P5OPQ8nO2n8ePk-1" value="Start" style="ellipse;whiteSpace=wrap;html=1;" vertex="1" parent="1">
          <mxGeometry x="340" width="120" height="80" as="geometry" />
        </mxCell>
        <mxCell id="4_rjH7P5OPQ8nO2n8ePk-2" value="" style="endArrow=classic;html=1;rounded=0;exitX=0.5;exitY=1;exitDx=0;exitDy=0;" edge="1" parent="1" source="4_rjH7P5OPQ8nO2n8ePk-1">
          <mxGeometry width="50" height="50" relative="1" as="geometry">
            <mxPoint x="380" y="150" as="sourcePoint" />
            <mxPoint x="400" y="130" as="targetPoint" />
          </mxGeometry>
        </mxCell>
        <mxCell id="4_rjH7P5OPQ8nO2n8ePk-3" value="&lt;span style=&quot;line-height: 107%; font-family: &amp;quot;Times New Roman&amp;quot;, serif;&quot;&gt;&lt;font style=&quot;font-size: 14px;&quot;&gt;Input Product&lt;br&gt;Price,&amp;nbsp;&lt;/font&gt;&lt;/span&gt;&lt;span style=&quot;line-height: 107%; font-family: &amp;quot;Times New Roman&amp;quot;, serif;&quot;&gt;&lt;font style=&quot;font-size: 14px;&quot;&gt;VAT&lt;br&gt;rate&lt;/font&gt;&lt;/span&gt;" style="shape=parallelogram;perimeter=parallelogramPerimeter;whiteSpace=wrap;html=1;fixedSize=1;" vertex="1" parent="1">
          <mxGeometry x="340" y="130" width="120" height="60" as="geometry" />
        </mxCell>
        <mxCell id="4_rjH7P5OPQ8nO2n8ePk-4" value="" style="endArrow=classic;html=1;rounded=0;exitX=0.5;exitY=1;exitDx=0;exitDy=0;" edge="1" parent="1" source="4_rjH7P5OPQ8nO2n8ePk-3">
          <mxGeometry width="50" height="50" relative="1" as="geometry">
            <mxPoint x="450" y="270" as="sourcePoint" />
            <mxPoint x="400" y="240" as="targetPoint" />
          </mxGeometry>
        </mxCell>
        <mxCell id="4_rjH7P5OPQ8nO2n8ePk-5" value="&lt;font style=&quot;font-size: 14px;&quot;&gt;&lt;span style=&quot;&quot; class=&quot;mord&quot;&gt;&lt;span style=&quot;font-family: &amp;quot;Times New Roman&amp;quot;, serif;&quot;&gt;VAT&amp;nbsp;amount &lt;/span&gt;&lt;/span&gt;&lt;span style=&quot;&quot; class=&quot;mrel&quot;&gt;&lt;span style=&quot;line-height: 107%; font-family: &amp;quot;Times New Roman&amp;quot;, serif;&quot;&gt;= &lt;/span&gt;&lt;/span&gt;&lt;span style=&quot;&quot; class=&quot;mord&quot;&gt;&lt;span style=&quot;line-height: 107%; font-family: &amp;quot;Times New Roman&amp;quot;, serif;&quot;&gt;Product&amp;nbsp;Price&lt;/span&gt;&lt;/span&gt;&lt;span style=&quot;&quot; class=&quot;mbin&quot;&gt;&lt;span style=&quot;line-height: 107%; font-family: &amp;quot;Times New Roman&amp;quot;, serif;&quot;&gt; x (VAT Rate/100)&lt;/span&gt;&lt;/span&gt;&lt;/font&gt;&lt;div style=&quot;font-size: 14px;&quot;&gt;&lt;span style=&quot;&quot; class=&quot;mbin&quot;&gt;&lt;span style=&quot;line-height: 107%; font-family: &amp;quot;Times New Roman&amp;quot;, serif;&quot;&gt;&lt;p style=&quot;margin-bottom: 0in; line-height: normal;&quot; class=&quot;MsoNormal&quot;&gt;&lt;font style=&quot;font-size: 14px;&quot;&gt;&amp;nbsp; &amp;nbsp;Total Price = Product Price + VAT amount&lt;/font&gt;&lt;/p&gt;&lt;/span&gt;&lt;/span&gt;&lt;/div&gt;" style="rounded=0;whiteSpace=wrap;html=1;" vertex="1" parent="1">
          <mxGeometry x="290" y="240" width="230" height="90" as="geometry" />
        </mxCell>
        <mxCell id="4_rjH7P5OPQ8nO2n8ePk-6" value="" style="endArrow=classic;html=1;rounded=0;exitX=0.5;exitY=1;exitDx=0;exitDy=0;" edge="1" parent="1" source="4_rjH7P5OPQ8nO2n8ePk-5">
          <mxGeometry width="50" height="50" relative="1" as="geometry">
            <mxPoint x="440" y="400" as="sourcePoint" />
            <mxPoint x="405" y="390" as="targetPoint" />
          </mxGeometry>
        </mxCell>
        <mxCell id="4_rjH7P5OPQ8nO2n8ePk-7" value="&lt;font style=&quot;font-size: 13px;&quot;&gt;Print (Total Price)&lt;/font&gt;" style="shape=parallelogram;perimeter=parallelogramPerimeter;whiteSpace=wrap;html=1;fixedSize=1;" vertex="1" parent="1">
          <mxGeometry x="332" y="390" width="141" height="60" as="geometry" />
        </mxCell>
        <mxCell id="4_rjH7P5OPQ8nO2n8ePk-8" value="" style="endArrow=classic;html=1;rounded=0;exitX=0.5;exitY=1;exitDx=0;exitDy=0;" edge="1" parent="1" source="4_rjH7P5OPQ8nO2n8ePk-7">
          <mxGeometry width="50" height="50" relative="1" as="geometry">
            <mxPoint x="360" y="540" as="sourcePoint" />
            <mxPoint x="403" y="500" as="targetPoint" />
          </mxGeometry>
        </mxCell>
        <mxCell id="4_rjH7P5OPQ8nO2n8ePk-9" value="End" style="ellipse;whiteSpace=wrap;html=1;" vertex="1" parent="1">
          <mxGeometry x="343" y="500" width="120" height="80" as="geometry" />
        </mxCell>
      </root>
    </mxGraphModel>
  </diagram>
</mxfile>
